<?xml version="1.0" encoding="UTF-8"?>
<svg xmlns="http://www.w3.org/2000/svg" xmlns:xlink="http://www.w3.org/1999/xlink" width="2836" height="2835" viewBox="0 0 2836 2835">
<path fill-rule="evenodd" fill="rgb(45.996094%, 58.984375%, 23.997498%)" fill-opacity="1" d="M 1 0.351562 L 2835.640625 0.351562 L 2835.640625 2835 L 1 2835 L 1 0.351562 "/>
<path fill-rule="evenodd" fill="rgb(96.09375%, 91.014099%, 37.988281%)" fill-opacity="1" d="M 1319.589844 2431.257812 L 1279.828125 2423.308594 L 1270.640625 2450.324219 L 1223.910156 2443 C 1216.800781 2452.742188 1225.21875 2450.707031 1213.941406 2467.367188 C 1212.339844 2465.34375 1197 2472.230469 1210.511719 2431.847656 C 1235.980469 2425.617188 1237.851562 2434.613281 1259.210938 2436.351562 C 1278.371094 2399.152344 1261.738281 2408.910156 1309.519531 2413.027344 L 1324.621094 2394.683594 C 1340.050781 2398.613281 1352.488281 2408.816406 1364.410156 2408.808594 C 1382.980469 2408.789062 1386.96875 2393.914062 1402 2420.398438 C 1394.109375 2425.28125 1385.21875 2421.824219 1376.148438 2422.15625 C 1337.730469 2423.566406 1365.878906 2424.777344 1328.261719 2409.21875 C 1324.878906 2423.828125 1327.941406 2418.894531 1319.589844 2431.257812 Z M 1965.890625 1711.039062 C 1911.101562 1867.265625 1697.339844 1792.089844 1739.371094 1642.789062 C 1753.71875 1591.800781 1814.148438 1541.878906 1885.121094 1563.21875 C 1935.621094 1578.410156 1991.910156 1636.828125 1965.890625 1711.039062 Z M 1305.128906 1581.671875 C 1333.890625 1592.839844 1333.988281 1610.738281 1381.960938 1596.691406 C 1408.628906 1588.878906 1432.070312 1572.28125 1465.449219 1585.550781 C 1493.289062 1596.621094 1505.25 1613.269531 1546.121094 1611.761719 C 1585.488281 1610.308594 1599.640625 1587.871094 1624.859375 1585.378906 C 1601.921875 1622.050781 1590.671875 1587.699219 1586.890625 1655.691406 C 1583 1725.519531 1552.058594 1868.292969 1465.808594 1866.273438 C 1407.96875 1864.914062 1392.5 1783.101562 1376.058594 1735.539062 C 1362.441406 1696.140625 1346.789062 1622.269531 1333.609375 1611.441406 C 1319.910156 1600.171875 1309.980469 1604.039062 1305.128906 1581.671875 Z M 1389.960938 1494.710938 C 1385.691406 1505.140625 1391.109375 1502.101562 1379.300781 1508.78125 C 1370.578125 1513.710938 1345.089844 1520.140625 1345.371094 1490.199219 C 1364.261719 1488.539062 1375.550781 1485.800781 1389.960938 1494.710938 Z M 1693.191406 1358.121094 C 1789.699219 1323.699219 1847.789062 1474.789062 1757.839844 1514.910156 C 1661.351562 1557.941406 1588.960938 1395.308594 1693.191406 1358.121094 Z M 1227.28125 1351.121094 C 1288.671875 1312.109375 1305.480469 1464.839844 1242.46875 1503.601562 C 1179.058594 1542.601562 1149.761719 1400.378906 1227.28125 1351.121094 Z M 1134.820312 1439.390625 C 1127.148438 1476.109375 1116.699219 1490.628906 1101.5 1524.890625 L 1109.710938 1528.320312 C 1149.558594 1541.449219 1187.070312 1555.351562 1194.191406 1625.53125 C 1201.019531 1692.71875 1168.390625 1733.609375 1103.25 1729.558594 C 1115.589844 1767.289062 1171.949219 1838.476562 1200.261719 1865.546875 C 1214.351562 1879.019531 1230.75 1889.558594 1241.429688 1908.777344 C 1193.878906 1894.035156 1136.128906 1813.628906 1107.261719 1767.03125 C 1090.308594 1739.679688 1073.171875 1705.351562 1063.929688 1675.109375 C 1046.269531 1617.300781 1054.640625 1604.988281 1070.519531 1557.070312 C 1047.570312 1571.75 1020.871094 1618.558594 1006.148438 1644.441406 C 988.675781 1675.140625 969.839844 1730.589844 930.972656 1727.058594 C 896.96875 1620.460938 1046.519531 1473.769531 1053.660156 1457.238281 C 1015.550781 1457.75 1027.390625 1460.871094 1000.160156 1470.191406 L 989.304688 1481.109375 C 855.636719 1593.171875 858.441406 1703.308594 828.789062 1678.921875 C 788.875 1642.570312 864.328125 1536.300781 874.078125 1512.308594 C 829.933594 1523.621094 777.589844 1584.800781 753.953125 1618.339844 C 728.117188 1655.011719 697.980469 1713.71875 682.023438 1763.820312 C 661.578125 1828 650.011719 1877.847656 654.761719 1957.738281 C 657.503906 2003.898438 680.839844 2094.515625 705.816406 2118.566406 C 722.671875 2124.398438 712.992188 2120.664062 721.578125 2128.914062 C 780.902344 2185.933594 841.976562 2181.882812 901.886719 2123.367188 C 942.234375 2083.953125 906.300781 2085.886719 932.203125 2050.457031 C 945.488281 2060.957031 949 2086.933594 949.398438 2103.238281 C 944.28125 2174.527344 1101.039062 2441.785156 1242.941406 2486.976562 C 1272.738281 2496.464844 1309.191406 2501.882812 1346.390625 2491.972656 C 1396.890625 2478.527344 1395.648438 2486.453125 1444.898438 2481.144531 C 1442.359375 2447.746094 1424.359375 2456.625 1428.171875 2422.421875 C 1437.910156 2334.910156 1443.019531 2307.074219 1418.859375 2206.082031 C 1408.25 2161.742188 1358.589844 2021.605469 1321.269531 1984.140625 C 1312 1976.007812 1305.339844 1957.597656 1301.628906 1945.058594 C 1336.589844 1955.6875 1393.871094 1983.347656 1425.789062 1990.570312 C 1522.621094 2012.476562 1623.359375 2025.675781 1727.109375 2024.003906 C 1783.289062 2023.101562 1865.320312 2009.539062 1880.96875 2010.035156 C 1875.558594 2026.566406 1830.71875 2061.515625 1816.078125 2092.066406 C 1805.679688 2113.792969 1804.671875 2116.300781 1785.96875 2118.933594 C 1773.960938 2123.234375 1777.519531 2120.863281 1768.570312 2131.847656 C 1760.730469 2156.246094 1715.5 2204.898438 1696.910156 2233.972656 C 1679 2261.980469 1641.238281 2319.808594 1644.261719 2354.171875 C 1648.941406 2383.085938 1761.828125 2498.628906 1787.871094 2520.617188 C 1811.46875 2540.546875 1819.78125 2541.441406 1833.179688 2575.835938 C 1849.960938 2568.761719 1839.058594 2570.226562 1852.859375 2557.246094 C 1874.671875 2561.066406 1860.730469 2562.378906 1878.140625 2566.691406 C 1907.648438 2573.996094 1882.828125 2566.628906 1897.269531 2561.578125 C 1920.660156 2553.402344 1897.019531 2563.703125 1919.269531 2564.511719 C 1934.78125 2565.074219 1929.511719 2566.25 1938.699219 2549.46875 L 1963.550781 2557.894531 C 1975.511719 2537.238281 1958.839844 2548.683594 1975.03125 2540.019531 C 1983.710938 2535.371094 1975.578125 2539.992188 1983.910156 2538.28125 C 1996.390625 2535.71875 1983.480469 2543.101562 1993.910156 2536.109375 C 1970.128906 2439.765625 1976.410156 2344.171875 1986 2243.574219 C 2000.441406 2092.179688 1999.730469 2093.351562 2004.789062 1942.460938 C 2010.710938 1765.578125 2012.269531 1813.238281 2037.410156 1659.769531 C 2048.628906 1591.289062 2059.28125 1433.691406 2039.589844 1372.410156 C 2036.96875 1369.898438 2029.378906 1369.179688 2023.03125 1345 C 1997.308594 1346.71875 1962.691406 1338.359375 1943.988281 1328.101562 C 1941.710938 1307.890625 1939.78125 1320.308594 1947.589844 1302.351562 C 1960.808594 1271.980469 2037.859375 1247.789062 2066.878906 1242.988281 C 2091.171875 1239.191406 2175.03125 1179.890625 2196.320312 1163.910156 C 2247.53125 1125.488281 2277.71875 1113.28125 2303.851562 1065.398438 C 2336.601562 1005.378906 2417.21875 832.160156 2422.949219 763.828125 C 2353.761719 770.351562 2157.609375 902.300781 2112.511719 939.46875 C 2064.019531 979.429688 2025.898438 1011.519531 1985.941406 1054.25 L 1878.949219 1185.230469 L 1886.359375 1149.648438 C 1867.640625 1142.660156 1847.589844 1127.070312 1831.261719 1118.5 C 1772.160156 1087.46875 1705.648438 1066.671875 1640.011719 1059.828125 C 1469.671875 1042.109375 1398.25 1090.25 1367.519531 1094.269531 L 1353.828125 1092.230469 C 1411.328125 1054.109375 1386.46875 1101.570312 1446.101562 1007.859375 C 1468.140625 973.21875 1490.03125 927.789062 1506.441406 891.441406 C 1530.820312 837.449219 1531.910156 679.109375 1513.699219 611.621094 L 1500.699219 583.378906 C 1464.039062 601.238281 1345.339844 779.101562 1311.578125 842.53125 C 1262.558594 934.628906 1207.71875 1054.351562 1206.21875 1186.058594 C 1235.988281 1175.789062 1231.640625 1162.960938 1259.441406 1152.898438 C 1248.710938 1171.039062 1225.519531 1186.359375 1209.03125 1208.148438 C 1139.101562 1300.5 1156.019531 1405.921875 1134.820312 1439.390625 "/>
<path fill-rule="evenodd" fill="rgb(4.998779%, 3.999329%, 2.999878%)" fill-opacity="1" d="M 715.847656 2324.890625 C 705.097656 2343.210938 691.3125 2348.339844 675.625 2352.105469 C 669.421875 2339.746094 675.507812 2349.964844 668.480469 2344.308594 C 668.222656 2344.105469 639.890625 2334.535156 647.425781 2287.785156 L 639.039062 2165.667969 C 638.804688 2148.222656 637.210938 2050.046875 642.046875 2035.019531 C 646 2022.722656 645.667969 2026.03125 650.46875 2020.679688 C 665.558594 2046.855469 672.714844 2084.910156 686.617188 2112.535156 C 700.988281 2141.097656 731.242188 2175.21875 737.804688 2190.222656 C 751.015625 2195.835938 746.136719 2203.132812 742.636719 2220.894531 C 740.742188 2230.515625 736.855469 2245.011719 733.84375 2257.289062 C 729.160156 2276.367188 713.949219 2312.503906 715.847656 2324.890625 Z M 836.613281 1667.089844 C 829.496094 1655.691406 830.667969 1640.511719 833.449219 1627.710938 C 840.445312 1595.550781 859.621094 1558.191406 876.085938 1534.5 C 901.003906 1498.660156 927.570312 1473.089844 981.722656 1469.960938 C 921.769531 1532.738281 895.261719 1545.980469 854.460938 1638.390625 C 846.65625 1656.070312 848.195312 1657.359375 836.613281 1667.089844 Z M 2066.878906 1242.988281 C 2052.140625 1259.300781 2000.738281 1282.449219 1981.550781 1288.441406 C 1998.960938 1309.101562 2022.671875 1251.269531 2039.589844 1372.410156 C 2059.28125 1433.691406 2048.628906 1591.289062 2037.410156 1659.769531 C 2012.269531 1813.238281 2010.710938 1765.578125 2004.789062 1942.460938 C 1999.730469 2093.351562 2000.441406 2092.179688 1986 2243.574219 C 1976.410156 2344.171875 1970.128906 2439.765625 1993.910156 2536.109375 C 1983.480469 2543.101562 1996.390625 2535.71875 1983.910156 2538.28125 C 1975.578125 2539.992188 1983.710938 2535.371094 1975.03125 2540.019531 C 1958.839844 2548.683594 1975.511719 2537.238281 1963.550781 2557.894531 L 1938.699219 2549.46875 C 1929.511719 2566.25 1934.78125 2565.074219 1919.269531 2564.511719 C 1897.019531 2563.703125 1920.660156 2553.402344 1897.269531 2561.578125 C 1882.828125 2566.628906 1907.648438 2573.996094 1878.140625 2566.691406 C 1860.730469 2562.378906 1874.671875 2561.066406 1852.859375 2557.246094 C 1839.058594 2570.226562 1849.960938 2568.761719 1833.179688 2575.835938 C 1819.78125 2541.441406 1811.46875 2540.546875 1787.871094 2520.617188 C 1761.828125 2498.628906 1648.941406 2383.085938 1644.261719 2354.171875 C 1634.160156 2347.144531 1640.691406 2353.804688 1629.828125 2341.144531 C 1611.941406 2320.3125 1567.289062 2242.886719 1564.460938 2223.488281 C 1675.238281 2195.144531 1727.390625 2145.703125 1768.570312 2131.847656 C 1777.519531 2120.863281 1773.960938 2123.234375 1785.96875 2118.933594 C 1790.949219 2098.664062 1788.761719 2113.53125 1782.429688 2108.59375 C 1720.511719 2149.132812 1543.601562 2247.6875 1438.171875 2226.292969 C 1412.679688 2173.289062 1419.238281 2125.796875 1362.441406 2030.570312 C 1350.410156 2010.402344 1332.050781 1990.464844 1324.621094 1975.152344 L 1321.269531 1984.140625 C 1358.589844 2021.605469 1408.25 2161.742188 1418.859375 2206.082031 C 1443.019531 2307.074219 1437.910156 2334.910156 1428.171875 2422.421875 C 1424.359375 2456.625 1442.359375 2447.746094 1444.898438 2481.144531 C 1395.648438 2486.453125 1396.890625 2478.527344 1346.390625 2491.972656 C 1309.191406 2501.882812 1272.738281 2496.464844 1242.941406 2486.976562 C 1101.039062 2441.785156 944.28125 2174.527344 949.398438 2103.238281 C 933.332031 2089.617188 938.917969 2076.960938 932.464844 2063.253906 C 929.453125 2132.542969 954.8125 2146.984375 963.414062 2194.007812 C 918.183594 2227.53125 747.027344 2244.410156 705.816406 2118.566406 C 680.839844 2094.515625 657.503906 2003.898438 654.761719 1957.738281 C 650.011719 1877.847656 661.578125 1828 682.023438 1763.820312 C 697.980469 1713.71875 728.117188 1655.011719 753.953125 1618.339844 C 777.589844 1584.800781 829.933594 1523.621094 874.078125 1512.308594 C 864.328125 1536.300781 788.875 1642.570312 828.789062 1678.921875 C 858.441406 1703.308594 855.636719 1593.171875 989.304688 1481.109375 L 1000.160156 1470.191406 C 1010.308594 1452.289062 985.941406 1469.921875 1013.828125 1453.941406 C 1018.75 1451.121094 1026.988281 1449.589844 1034.738281 1448.550781 C 1065.238281 1444.441406 1059.609375 1451.71875 1083.039062 1448.769531 C 1097.78125 1438.128906 1115.761719 1441.578125 1134.820312 1439.390625 C 1156.019531 1405.921875 1139.101562 1300.5 1209.03125 1208.148438 C 1225.519531 1186.359375 1248.710938 1171.039062 1259.441406 1152.898438 C 1231.640625 1162.960938 1235.988281 1175.789062 1206.21875 1186.058594 C 1207.71875 1054.351562 1262.558594 934.628906 1311.578125 842.53125 C 1345.339844 779.101562 1464.039062 601.238281 1500.699219 583.378906 L 1513.699219 611.621094 C 1531.910156 679.109375 1530.820312 837.449219 1506.441406 891.441406 C 1490.03125 927.789062 1468.140625 973.21875 1446.101562 1007.859375 C 1386.46875 1101.570312 1411.328125 1054.109375 1353.828125 1092.230469 L 1367.519531 1094.269531 C 1398.25 1090.25 1469.671875 1042.109375 1640.011719 1059.828125 C 1705.648438 1066.671875 1772.160156 1087.46875 1831.261719 1118.5 C 1847.589844 1127.070312 1867.640625 1142.660156 1886.359375 1149.648438 L 1878.949219 1185.230469 L 1985.941406 1054.25 C 2025.898438 1011.519531 2064.019531 979.429688 2112.511719 939.46875 C 2157.609375 902.300781 2353.761719 770.351562 2422.949219 763.828125 C 2417.21875 832.160156 2336.601562 1005.378906 2303.851562 1065.398438 C 2277.71875 1113.28125 2247.53125 1125.488281 2196.320312 1163.910156 C 2175.03125 1179.890625 2091.171875 1239.191406 2066.878906 1242.988281 Z M 933.695312 1338.710938 C 913.136719 1370.628906 894.992188 1384.039062 883.878906 1412.351562 L 950.773438 1410.679688 C 945.199219 1449.609375 892.835938 1496.558594 847.203125 1508.578125 L 851.613281 1475.75 C 812.339844 1473.480469 781.5625 1485.691406 742.070312 1488.429688 C 744.777344 1470.710938 772.972656 1431.320312 784.082031 1411.148438 C 792.652344 1395.589844 816.9375 1346.46875 828.992188 1334.480469 L 838.394531 1291.921875 L 612.980469 1316.300781 C 616.269531 1245.429688 693.722656 1034.339844 702.453125 970.050781 C 648.671875 973.839844 556.84375 997.640625 497.300781 1009.761719 C 447.679688 1019.859375 334.269531 1046.761719 288.617188 1042.921875 C 283.320312 961.210938 295.769531 781.351562 308.925781 696.011719 C 311.578125 678.800781 316.988281 608.78125 330.269531 595.480469 C 374.660156 559.238281 1103.921875 426.378906 1199.820312 437.648438 C 1199.828125 516.390625 895.222656 1054.449219 885.527344 1130.730469 L 1082.078125 1113.109375 C 1079.089844 1141.460938 956.246094 1310.28125 933.695312 1338.710938 Z M 941.609375 1087.191406 C 945.59375 1070.539062 1177.320312 600.429688 1195.78125 560.320312 C 1274.921875 388.390625 1250.859375 389.859375 1061.738281 410.441406 C 893.816406 428.710938 572.261719 494.21875 405.34375 533.609375 C 303.890625 557.550781 296.882812 553.289062 285.484375 611.898438 C 264.921875 717.648438 253.839844 857.269531 250.988281 966.460938 C 248.640625 1056.371094 232.382812 1088.671875 323.554688 1078.910156 C 407.871094 1069.878906 611.371094 1019.25 649.28125 1018.011719 C 648.371094 1037.808594 592.027344 1236.46875 581.855469 1274.78125 C 549.421875 1396.96875 603.34375 1343.929688 777.597656 1337.359375 C 770.195312 1387.210938 683.085938 1470.199219 697.644531 1512.238281 C 718.710938 1539.789062 747.351562 1521.191406 785.523438 1521.03125 C 780.519531 1534.679688 758.230469 1551.679688 746.863281 1565.980469 C 706.445312 1616.828125 679.347656 1666.601562 654.617188 1730.378906 C 636.6875 1776.601562 626.386719 1814.519531 620.0625 1866.003906 C 616.71875 1893.25 616.492188 1917.054688 615.589844 1947.4375 C 614.882812 1971.277344 608.101562 1998.800781 605.722656 2023.117188 C 597.84375 2103.621094 601.265625 2276.816406 625.410156 2345.277344 C 640.550781 2388.199219 693.164062 2412.664062 728.40625 2367.523438 C 756.609375 2331.40625 756.65625 2292.511719 776.242188 2245.035156 C 802.539062 2244.652344 829.5625 2257.863281 870.867188 2254.273438 C 898.519531 2251.871094 931.65625 2241.972656 957.355469 2241.5 C 984.480469 2269.039062 1129.601562 2586.335938 1353.320312 2529.648438 C 1425.058594 2511.464844 1448.148438 2527.191406 1468.828125 2509.273438 C 1482.058594 2497.8125 1486.488281 2474.300781 1478.640625 2453.132812 C 1467.050781 2421.886719 1463.300781 2447.761719 1469.820312 2399.140625 C 1476.019531 2352.878906 1466.460938 2306.449219 1471.039062 2265.007812 L 1536.289062 2259.292969 C 1684.011719 2509.011719 1760.898438 2530.179688 1792.191406 2576.503906 C 1804.109375 2594.15625 1803.929688 2610.148438 1829.761719 2614.488281 C 1848.578125 2617.648438 1857.25 2606.0625 1887.839844 2605.945312 C 2083.199219 2605.195312 2023.96875 2513.503906 2019.050781 2476.480469 C 1999.5 2329.046875 2033.210938 2205.929688 2037.558594 2078.359375 C 2040.820312 1982.972656 2041.089844 1892.847656 2049.179688 1801.640625 C 2058.769531 1693.609375 2103.519531 1555.691406 2082.730469 1410.378906 C 2079.199219 1385.738281 2059.710938 1307.699219 2060.921875 1293.46875 C 2093.328125 1269.75 2124.191406 1257.398438 2153.800781 1237.449219 C 2240.390625 1179.121094 2333.308594 1114.789062 2406.039062 1041.648438 C 2430.390625 1017.160156 2707.761719 771.480469 2645.710938 696.960938 C 2607.019531 650.480469 2443.71875 712.101562 2400.160156 729.03125 C 2331.230469 755.828125 2268.089844 790.820312 2203.988281 829.261719 C 2124.761719 876.769531 2016.578125 964.050781 1958.03125 1031.359375 C 1945.5 1045.769531 1933.851562 1055.078125 1921.828125 1070.601562 C 1914.191406 1080.46875 1900.25 1100.550781 1888.078125 1107.128906 C 1860.390625 1095.308594 1837.769531 1079.410156 1804.570312 1065 C 1659.679688 1002.121094 1575.699219 1030.308594 1482.839844 1024.101562 C 1482.859375 1023.960938 1684.238281 624.421875 1676.101562 493.691406 C 1672.941406 443.070312 1633.441406 430.75 1591.160156 453.300781 C 1533.691406 483.941406 1484.511719 540.300781 1440.898438 589.738281 C 1292.949219 757.480469 1189.988281 953.28125 1168.929688 1187.988281 C 1166.910156 1210.589844 1137.121094 1257.609375 1126.558594 1291.878906 C 1090.089844 1410.179688 1157.851562 1411 991.835938 1425.558594 C 995.796875 1379.441406 991.78125 1386.808594 962.359375 1368.929688 C 966.164062 1355.980469 1070.941406 1210.171875 1097.671875 1167.511719 C 1189.460938 1021.011719 1027.28125 1090.929688 941.609375 1087.191406 "/>
<path fill-rule="evenodd" fill="rgb(96.09375%, 91.992188%, 38.989258%)" fill-opacity="1" d="M 828.992188 1334.480469 L 827.960938 1356.351562 L 851.425781 1338.109375 C 860.882812 1349.960938 854.355469 1350.179688 861.769531 1361.921875 C 873.898438 1351.878906 872.21875 1349.800781 886.921875 1341.601562 C 887.757812 1342.871094 888.785156 1343.410156 889.117188 1345.601562 C 892.425781 1367.441406 895.027344 1358.96875 896.984375 1362.371094 C 910.28125 1354.019531 917.601562 1347.019531 933.695312 1338.710938 C 956.246094 1310.28125 1079.089844 1141.460938 1082.078125 1113.109375 L 885.527344 1130.730469 C 895.222656 1054.449219 1199.828125 516.390625 1199.820312 437.648438 C 1103.921875 426.378906 374.660156 559.238281 330.269531 595.480469 C 316.988281 608.78125 311.578125 678.800781 308.925781 696.011719 C 295.769531 781.351562 283.320312 961.210938 288.617188 1042.921875 C 334.269531 1046.761719 447.679688 1019.859375 497.300781 1009.761719 C 556.84375 997.640625 648.671875 973.839844 702.453125 970.050781 C 693.722656 1034.339844 616.269531 1245.429688 612.980469 1316.300781 L 838.394531 1291.921875 L 828.992188 1334.480469 "/>
<path fill-rule="evenodd" fill="rgb(91.014099%, 68.943787%, 19.993591%)" fill-opacity="1" d="M 1321.269531 1984.140625 L 1324.621094 1975.152344 C 1332.050781 1990.464844 1350.410156 2010.402344 1362.441406 2030.570312 C 1419.238281 2125.796875 1412.679688 2173.289062 1438.171875 2226.292969 C 1543.601562 2247.6875 1720.511719 2149.132812 1782.429688 2108.59375 C 1788.761719 2113.53125 1790.949219 2098.664062 1785.96875 2118.933594 C 1804.671875 2116.300781 1805.679688 2113.792969 1816.078125 2092.066406 C 1830.71875 2061.515625 1875.558594 2026.566406 1880.96875 2010.035156 C 1865.320312 2009.539062 1783.289062 2023.101562 1727.109375 2024.003906 C 1623.359375 2025.675781 1522.621094 2012.476562 1425.789062 1990.570312 C 1393.871094 1983.347656 1336.589844 1955.6875 1301.628906 1945.058594 C 1305.339844 1957.597656 1312 1976.007812 1321.269531 1984.140625 "/>
<path fill-rule="evenodd" fill="rgb(85.9375%, 27.001953%, 11.009216%)" fill-opacity="1" d="M 1951.628906 1711.039062 C 1976.101562 1650.398438 1924.378906 1591.378906 1885.828125 1578.679688 C 1819.570312 1556.839844 1767.96875 1601.019531 1753.449219 1646.421875 C 1713.730469 1770.558594 1896.570312 1847.476562 1951.628906 1711.039062 "/>
<path fill-rule="evenodd" fill="rgb(86.914062%, 41.992188%, 41.992188%)" fill-opacity="1" d="M 1424.660156 1653.148438 C 1407.238281 1667.898438 1384.300781 1716.980469 1395.140625 1750.910156 C 1404.820312 1781.179688 1419.550781 1831.390625 1441.648438 1845.570312 C 1509.890625 1889.378906 1562.929688 1764.238281 1566.921875 1703.308594 L 1565.871094 1664.800781 C 1524.269531 1647.371094 1476.980469 1637.410156 1424.660156 1653.148438 "/>
<path fill-rule="evenodd" fill="rgb(23.997498%, 12.010193%, 3.999329%)" fill-opacity="1" d="M 1098.660156 1714.648438 C 1081.058594 1691.730469 1063.328125 1648.128906 1069.660156 1606.878906 C 1075.691406 1567.640625 1095.71875 1524.289062 1139.820312 1553.730469 C 1195.550781 1590.929688 1208.101562 1729.628906 1098.660156 1714.648438 Z M 1083.039062 1448.769531 L 1116.78125 1450.46875 C 1113.441406 1473.710938 1096.261719 1510.550781 1082.53125 1524.078125 C 979.472656 1625.648438 977.273438 1695.410156 940.285156 1713.820312 C 939.875 1655.660156 967.21875 1599.648438 992.699219 1559.761719 C 1035.648438 1492.511719 1029.648438 1508.71875 1072.300781 1463.761719 Z M 1000.160156 1470.191406 C 1027.390625 1460.871094 1015.550781 1457.75 1053.660156 1457.238281 C 1046.519531 1473.769531 896.96875 1620.460938 930.972656 1727.058594 C 969.839844 1730.589844 988.675781 1675.140625 1006.148438 1644.441406 C 1020.871094 1618.558594 1047.570312 1571.75 1070.519531 1557.070312 C 1054.640625 1604.988281 1046.269531 1617.300781 1063.929688 1675.109375 C 1073.171875 1705.351562 1090.308594 1739.679688 1107.261719 1767.03125 C 1136.128906 1813.628906 1193.878906 1894.035156 1241.429688 1908.777344 C 1230.75 1889.558594 1214.351562 1879.019531 1200.261719 1865.546875 C 1171.949219 1838.476562 1115.589844 1767.289062 1103.25 1729.558594 C 1168.390625 1733.609375 1201.019531 1692.71875 1194.191406 1625.53125 C 1187.070312 1555.351562 1149.558594 1541.449219 1109.710938 1528.320312 L 1101.5 1524.890625 C 1116.699219 1490.628906 1127.148438 1476.109375 1134.820312 1439.390625 C 1115.761719 1441.578125 1097.78125 1438.128906 1083.039062 1448.769531 C 1059.609375 1451.71875 1065.238281 1444.441406 1034.738281 1448.550781 C 1026.988281 1449.589844 1018.75 1451.121094 1013.828125 1453.941406 C 985.941406 1469.921875 1010.308594 1452.289062 1000.160156 1470.191406 "/>
<path fill-rule="evenodd" fill="rgb(74.021912%, 39.988708%, 12.988281%)" fill-opacity="1" d="M 933.695312 1338.710938 C 917.601562 1347.019531 910.28125 1354.019531 896.984375 1362.371094 C 895.027344 1358.96875 892.425781 1367.441406 889.117188 1345.601562 C 888.785156 1343.410156 887.757812 1342.871094 886.921875 1341.601562 C 872.21875 1349.800781 873.898438 1351.878906 861.769531 1361.921875 C 854.355469 1350.179688 860.882812 1349.960938 851.425781 1338.109375 L 827.960938 1356.351562 L 828.992188 1334.480469 C 816.9375 1346.46875 792.652344 1395.589844 784.082031 1411.148438 C 772.972656 1431.320312 744.777344 1470.710938 742.070312 1488.429688 C 781.5625 1485.691406 812.339844 1473.480469 851.613281 1475.75 L 847.203125 1508.578125 C 892.835938 1496.558594 945.199219 1449.609375 950.773438 1410.679688 L 883.878906 1412.351562 C 894.992188 1384.039062 913.136719 1370.628906 933.695312 1338.710938 "/>
<path fill-rule="evenodd" fill="rgb(4.998779%, 3.999329%, 2.999878%)" fill-opacity="1" d="M 1689.828125 1368.710938 C 1751.289062 1367.28125 1741.160156 1427.210938 1709.300781 1436.480469 C 1691.269531 1441.730469 1674.691406 1427.648438 1670.691406 1413.429688 C 1663.171875 1386.671875 1677.640625 1380.078125 1689.828125 1368.710938 Z M 1693.191406 1358.121094 C 1588.960938 1395.308594 1661.351562 1557.941406 1757.839844 1514.910156 C 1847.789062 1474.789062 1789.699219 1323.699219 1693.191406 1358.121094 "/>
<path fill-rule="evenodd" fill="rgb(84.959412%, 27.001953%, 12.988281%)" fill-opacity="1" d="M 1098.660156 1714.648438 C 1208.101562 1729.628906 1195.550781 1590.929688 1139.820312 1553.730469 C 1095.71875 1524.289062 1075.691406 1567.640625 1069.660156 1606.878906 C 1063.328125 1648.128906 1081.058594 1691.730469 1098.660156 1714.648438 "/>
<path fill-rule="evenodd" fill="rgb(91.014099%, 68.943787%, 19.993591%)" fill-opacity="1" d="M 1644.261719 2354.171875 C 1641.238281 2319.808594 1679 2261.980469 1696.910156 2233.972656 C 1715.5 2204.898438 1760.730469 2156.246094 1768.570312 2131.847656 C 1727.390625 2145.703125 1675.238281 2195.144531 1564.460938 2223.488281 C 1567.289062 2242.886719 1611.941406 2320.3125 1629.828125 2341.144531 C 1640.691406 2353.804688 1634.160156 2347.144531 1644.261719 2354.171875 "/>
<path fill-rule="evenodd" fill="rgb(91.014099%, 68.943787%, 19.993591%)" fill-opacity="1" d="M 705.816406 2118.566406 C 747.027344 2244.410156 918.183594 2227.53125 963.414062 2194.007812 C 954.8125 2146.984375 929.453125 2132.542969 932.464844 2063.253906 C 938.917969 2076.960938 933.332031 2089.617188 949.398438 2103.238281 C 949 2086.933594 945.488281 2060.957031 932.203125 2050.457031 C 906.300781 2085.886719 942.234375 2083.953125 901.886719 2123.367188 C 841.976562 2181.882812 780.902344 2185.933594 721.578125 2128.914062 C 712.992188 2120.664062 722.671875 2124.398438 705.816406 2118.566406 "/>
<path fill-rule="evenodd" fill="rgb(23.997498%, 12.010193%, 3.999329%)" fill-opacity="1" d="M 1424.660156 1653.148438 C 1432.730469 1627.078125 1445.570312 1622.691406 1459.648438 1605 C 1483.71875 1606.511719 1490.171875 1615.320312 1513.628906 1621.199219 C 1544.628906 1628.960938 1545.558594 1624.421875 1575.679688 1621.511719 C 1574.859375 1648.050781 1577.621094 1682.769531 1566.921875 1703.308594 C 1562.929688 1764.238281 1509.890625 1889.378906 1441.648438 1845.570312 C 1419.550781 1831.390625 1404.820312 1781.179688 1395.140625 1750.910156 C 1384.300781 1716.980469 1407.238281 1667.898438 1424.660156 1653.148438 Z M 1428.410156 1598.691406 C 1440.671875 1596.019531 1429.710938 1592.011719 1443.671875 1600.359375 C 1438.488281 1607.898438 1428.890625 1610.921875 1408.238281 1643.761719 C 1397.511719 1660.828125 1394.921875 1679.039062 1379.960938 1690.03125 C 1370.691406 1670.328125 1358.359375 1637.609375 1359.808594 1620.449219 Z M 1305.128906 1581.671875 C 1309.980469 1604.039062 1319.910156 1600.171875 1333.609375 1611.441406 C 1346.789062 1622.269531 1362.441406 1696.140625 1376.058594 1735.539062 C 1392.5 1783.101562 1407.96875 1864.914062 1465.808594 1866.273438 C 1552.058594 1868.292969 1583 1725.519531 1586.890625 1655.691406 C 1590.671875 1587.699219 1601.921875 1622.050781 1624.859375 1585.378906 C 1599.640625 1587.871094 1585.488281 1610.308594 1546.121094 1611.761719 C 1505.25 1613.269531 1493.289062 1596.621094 1465.449219 1585.550781 C 1432.070312 1572.28125 1408.628906 1588.878906 1381.960938 1596.691406 C 1333.988281 1610.738281 1333.890625 1592.839844 1305.128906 1581.671875 "/>
<path fill-rule="evenodd" fill="rgb(74.021912%, 39.988708%, 12.988281%)" fill-opacity="1" d="M 1083.039062 1448.769531 L 1072.300781 1463.761719 C 1029.648438 1508.71875 1035.648438 1492.511719 992.699219 1559.761719 C 967.21875 1599.648438 939.875 1655.660156 940.285156 1713.820312 C 977.273438 1695.410156 979.472656 1625.648438 1082.53125 1524.078125 C 1096.261719 1510.550781 1113.441406 1473.710938 1116.78125 1450.46875 L 1083.039062 1448.769531 "/>
<path fill-rule="evenodd" fill="rgb(4.998779%, 3.999329%, 2.999878%)" fill-opacity="1" d="M 1239.089844 1439.058594 C 1212.25 1417.828125 1225.738281 1379.640625 1254.179688 1369.949219 C 1278.839844 1393.558594 1272.351562 1431.480469 1239.089844 1439.058594 Z M 1227.28125 1351.121094 C 1149.761719 1400.378906 1179.058594 1542.601562 1242.46875 1503.601562 C 1305.480469 1464.839844 1288.671875 1312.109375 1227.28125 1351.121094 "/>
<path fill-rule="evenodd" fill="rgb(29.00238%, 10.009766%, 2.999878%)" fill-opacity="1" d="M 1951.628906 1711.039062 C 1896.570312 1847.476562 1713.730469 1770.558594 1753.449219 1646.421875 C 1767.96875 1601.019531 1819.570312 1556.839844 1885.828125 1578.679688 C 1924.378906 1591.378906 1976.101562 1650.398438 1951.628906 1711.039062 Z M 1965.890625 1711.039062 C 1991.910156 1636.828125 1935.621094 1578.410156 1885.121094 1563.21875 C 1814.148438 1541.878906 1753.71875 1591.800781 1739.371094 1642.789062 C 1697.339844 1792.089844 1911.101562 1867.265625 1965.890625 1711.039062 "/>
<path fill-rule="evenodd" fill="rgb(96.09375%, 91.014099%, 38.989258%)" fill-opacity="1" d="M 639.039062 2165.667969 C 640.070312 2166.964844 641.328125 2167.363281 641.90625 2169.722656 C 647.023438 2190.5625 714.976562 2218.691406 730.964844 2222.921875 C 734.578125 2211.53125 735.328125 2206.492188 737.804688 2190.222656 C 731.242188 2175.21875 700.988281 2141.097656 686.617188 2112.535156 C 672.714844 2084.910156 665.558594 2046.855469 650.46875 2020.679688 C 645.667969 2026.03125 646 2022.722656 642.046875 2035.019531 C 637.210938 2050.046875 638.804688 2148.222656 639.039062 2165.667969 "/>
<path fill-rule="evenodd" fill="rgb(84.959412%, 67.96875%, 23.997498%)" fill-opacity="1" d="M 647.425781 2287.785156 C 657.964844 2298.046875 651.820312 2292.582031 655.804688 2308.335938 C 656.238281 2310.0625 658.601562 2319.84375 658.882812 2320.496094 C 662.878906 2329.816406 662.980469 2327.386719 665.5625 2330.28125 C 675.347656 2299.453125 664.050781 2243.046875 675.625 2221.242188 C 695.839844 2239.144531 684.324219 2294.351562 684.132812 2325.574219 C 690.464844 2318.183594 691.164062 2317.71875 694.695312 2303.300781 C 696.554688 2295.722656 697.953125 2286.34375 698.902344 2278.660156 C 700.046875 2269.460938 700.328125 2259.738281 700.949219 2251.984375 C 700.953125 2251.941406 702.097656 2239.277344 702.164062 2239.054688 C 709.296875 2214.851562 702.609375 2232.105469 712.050781 2222.316406 C 714.21875 2241.304688 715.492188 2260.648438 713.402344 2279.746094 C 706.089844 2346.589844 702.292969 2315.566406 715.847656 2324.890625 C 713.949219 2312.503906 729.160156 2276.367188 733.84375 2257.289062 C 736.855469 2245.011719 740.742188 2230.515625 742.636719 2220.894531 C 746.136719 2203.132812 751.015625 2195.835938 737.804688 2190.222656 C 735.328125 2206.492188 734.578125 2211.53125 730.964844 2222.921875 C 714.976562 2218.691406 647.023438 2190.5625 641.90625 2169.722656 C 641.328125 2167.363281 640.070312 2166.964844 639.039062 2165.667969 L 647.425781 2287.785156 "/>
<path fill-rule="evenodd" fill="rgb(73.046875%, 42.993164%, 18.992615%)" fill-opacity="1" d="M 836.613281 1667.089844 C 848.195312 1657.359375 846.65625 1656.070312 854.460938 1638.390625 C 895.261719 1545.980469 921.769531 1532.738281 981.722656 1469.960938 C 927.570312 1473.089844 901.003906 1498.660156 876.085938 1534.5 C 859.621094 1558.191406 840.445312 1595.550781 833.449219 1627.710938 C 830.667969 1640.511719 829.496094 1655.691406 836.613281 1667.089844 "/>
<path fill-rule="evenodd" fill="rgb(90.039062%, 69.921875%, 18.992615%)" fill-opacity="1" d="M 2039.589844 1372.410156 C 2022.671875 1251.269531 1998.960938 1309.101562 1981.550781 1288.441406 C 2000.738281 1282.449219 2052.140625 1259.300781 2066.878906 1242.988281 C 2037.859375 1247.789062 1960.808594 1271.980469 1947.589844 1302.351562 C 1939.78125 1320.308594 1941.710938 1307.890625 1943.988281 1328.101562 C 1962.691406 1338.359375 1997.308594 1346.71875 2023.03125 1345 C 2029.378906 1369.179688 2036.96875 1369.898438 2039.589844 1372.410156 "/>
<path fill-rule="evenodd" fill="rgb(57.03125%, 17.993164%, 19.993591%)" fill-opacity="1" d="M 1424.660156 1653.148438 C 1476.980469 1637.410156 1524.269531 1647.371094 1565.871094 1664.800781 L 1566.921875 1703.308594 C 1577.621094 1682.769531 1574.859375 1648.050781 1575.679688 1621.511719 C 1545.558594 1624.421875 1544.628906 1628.960938 1513.628906 1621.199219 C 1490.171875 1615.320312 1483.71875 1606.511719 1459.648438 1605 C 1445.570312 1622.691406 1432.730469 1627.078125 1424.660156 1653.148438 "/>
<path fill-rule="evenodd" fill="rgb(36.009216%, 22.996521%, 4.998779%)" fill-opacity="1" d="M 647.425781 2287.785156 C 639.890625 2334.535156 668.222656 2344.105469 668.480469 2344.308594 C 675.507812 2349.964844 669.421875 2339.746094 675.625 2352.105469 C 691.3125 2348.339844 705.097656 2343.210938 715.847656 2324.890625 C 702.292969 2315.566406 706.089844 2346.589844 713.402344 2279.746094 C 715.492188 2260.648438 714.21875 2241.304688 712.050781 2222.316406 C 702.609375 2232.105469 709.296875 2214.851562 702.164062 2239.054688 C 702.097656 2239.277344 700.953125 2251.941406 700.949219 2251.984375 C 700.328125 2259.738281 700.046875 2269.460938 698.902344 2278.660156 C 697.953125 2286.34375 696.554688 2295.722656 694.695312 2303.300781 C 691.164062 2317.71875 690.464844 2318.183594 684.132812 2325.574219 C 684.324219 2294.351562 695.839844 2239.144531 675.625 2221.242188 C 664.050781 2243.046875 675.347656 2299.453125 665.5625 2330.28125 C 662.980469 2327.386719 662.878906 2329.816406 658.882812 2320.496094 C 658.601562 2319.84375 656.238281 2310.0625 655.804688 2308.335938 C 651.820312 2292.582031 657.964844 2298.046875 647.425781 2287.785156 "/>
<path fill-rule="evenodd" fill="rgb(98.046875%, 98.046875%, 98.046875%)" fill-opacity="1" d="M 1689.828125 1368.710938 C 1677.640625 1380.078125 1663.171875 1386.671875 1670.691406 1413.429688 C 1674.691406 1427.648438 1691.269531 1441.730469 1709.300781 1436.480469 C 1741.160156 1427.210938 1751.289062 1367.28125 1689.828125 1368.710938 "/>
<path fill-rule="evenodd" fill="rgb(25%, 17.993164%, 3.999329%)" fill-opacity="1" d="M 1319.589844 2431.257812 C 1327.941406 2418.894531 1324.878906 2423.828125 1328.261719 2409.21875 C 1365.878906 2424.777344 1337.730469 2423.566406 1376.148438 2422.15625 C 1385.21875 2421.824219 1394.109375 2425.28125 1402 2420.398438 C 1386.96875 2393.914062 1382.980469 2408.789062 1364.410156 2408.808594 C 1352.488281 2408.816406 1340.050781 2398.613281 1324.621094 2394.683594 L 1309.519531 2413.027344 C 1261.738281 2408.910156 1278.371094 2399.152344 1259.210938 2436.351562 C 1237.851562 2434.613281 1235.980469 2425.617188 1210.511719 2431.847656 C 1197 2472.230469 1212.339844 2465.34375 1213.941406 2467.367188 C 1225.21875 2450.707031 1216.800781 2452.742188 1223.910156 2443 L 1270.640625 2450.324219 L 1279.828125 2423.308594 L 1319.589844 2431.257812 "/>
<path fill-rule="evenodd" fill="rgb(44.993591%, 7.006836%, 5.999756%)" fill-opacity="1" d="M 1359.808594 1620.449219 C 1358.359375 1637.609375 1370.691406 1670.328125 1379.960938 1690.03125 C 1394.921875 1679.039062 1397.511719 1660.828125 1408.238281 1643.761719 C 1428.890625 1610.921875 1438.488281 1607.898438 1443.671875 1600.359375 C 1429.710938 1592.011719 1440.671875 1596.019531 1428.410156 1598.691406 L 1359.808594 1620.449219 "/>
<path fill-rule="evenodd" fill="rgb(98.046875%, 98.046875%, 98.046875%)" fill-opacity="1" d="M 1239.089844 1439.058594 C 1272.351562 1431.480469 1278.839844 1393.558594 1254.179688 1369.949219 C 1225.738281 1379.640625 1212.25 1417.828125 1239.089844 1439.058594 "/>
<path fill-rule="evenodd" fill="rgb(15.989685%, 10.009766%, 3.999329%)" fill-opacity="1" d="M 1389.960938 1494.710938 C 1375.550781 1485.800781 1364.261719 1488.539062 1345.371094 1490.199219 C 1345.089844 1520.140625 1370.578125 1513.710938 1379.300781 1508.78125 C 1391.109375 1502.101562 1385.691406 1505.140625 1389.960938 1494.710938 "/>
</svg>
